<?xml version="1.0" encoding="UTF-8"?>
<svg width="124px" height="124px" viewBox="0 0 124 124" version="1.1" xmlns="http://www.w3.org/2000/svg" xmlns:xlink="http://www.w3.org/1999/xlink">
    <!-- Generator: Sketch 40.1 (33804) - http://www.bohemiancoding.com/sketch -->
    <title>Group 21</title>
    <desc>Created with Sketch.</desc>
    <defs>
        <ellipse id="path-1" cx="63.7303368" cy="54.9454678" rx="54.4310244" ry="54.4310244"></ellipse>
        <filter x="-50%" y="-50%" width="200%" height="200%" filterUnits="objectBoundingBox" id="filter-2">
            <feMorphology radius="2.5" operator="dilate" in="SourceAlpha" result="shadowSpreadOuter1"></feMorphology>
            <feOffset dx="0" dy="0" in="shadowSpreadOuter1" result="shadowOffsetOuter1"></feOffset>
            <feGaussianBlur stdDeviation="2" in="shadowOffsetOuter1" result="shadowBlurOuter1"></feGaussianBlur>
            <feComposite in="shadowBlurOuter1" in2="SourceAlpha" operator="out" result="shadowBlurOuter1"></feComposite>
            <feColorMatrix values="0 0 0 0 0   0 0 0 0 0   0 0 0 0 0  0 0 0 0.130434783 0" type="matrix" in="shadowBlurOuter1"></feColorMatrix>
        </filter>
        <ellipse id="path-3" cx="54.6489951" cy="54.9454678" rx="54.4310244" ry="54.4310244"></ellipse>
        <linearGradient x1="34.2283566%" y1="68.2612446%" x2="82.940329%" y2="23.0464724%" id="linearGradient-5">
            <stop stop-color="#000000" stop-opacity="-0.00269493352" offset="0%"></stop>
            <stop stop-color="#000000" stop-opacity="0" offset="0%"></stop>
            <stop stop-color="#000000" stop-opacity="0.130434783" offset="100%"></stop>
        </linearGradient>
        <path d="M47.0088766,1.6345451 L0.703290957,56.8193932 L52.0625653,99.9149413 L80.7674884,65.7057461 C79.9530947,66.3406314 78.9308824,66.7198481 77.8243998,66.7198481 L51.0091158,66.7198481 C48.3676102,66.7198481 46.2063783,64.5586163 46.2063783,61.9171107 L46.2063783,4.28426131 C46.2063783,3.30688754 46.5022611,2.39526549 47.0088766,1.6345451 Z M47.6976423,0.81370611 L47.9860197,0.47003132 L47.9901524,0.556003694 C47.8892066,0.637990527 47.7916207,0.723973918 47.6976417,0.81370682 Z" id="path-6"></path>
        <path d="M47.0088766,1.6345451 L0.703290957,56.8193932 L52.0625653,99.9149413 L80.7674884,65.7057461 C79.9530947,66.3406314 78.9308824,66.7198481 77.8243998,66.7198481 L51.0091158,66.7198481 C48.3676102,66.7198481 46.2063783,64.5586163 46.2063783,61.9171107 L46.2063783,4.28426131 C46.2063783,3.30688754 46.5022611,2.39526549 47.0088766,1.6345451 Z M47.6976423,0.81370611 L47.9860197,0.47003132 L47.9901524,0.556003694 C47.8892066,0.637990527 47.7916207,0.723973918 47.6976417,0.81370682 Z" id="path-8"></path>
    </defs>
    <g id="BPL" stroke="none" stroke-width="1" fill="none" fill-rule="evenodd">
        <g id="Icon-List" transform="translate(-193.000000, -137.000000)">
            <g id="Group-21" transform="translate(191.000000, 144.000000)">
                <g id="Oval-4">
                    <use fill="black" fill-opacity="1" filter="url(#filter-2)" xlink:href="#path-1"></use>
                    <use stroke="#EB3E54" stroke-width="4" fill="#EE3E54" fill-rule="evenodd" xlink:href="#path-1"></use>
                </g>
                <g id="Rectangle-15" transform="translate(9.081342, 0.000000)">
                    <mask id="mask-4" fill="white">
                        <use xlink:href="#path-3"></use>
                    </mask>
                    <g id="Mask"></g>
                </g>
                <g id="Group-20" transform="translate(44.964355, 20.525849)" fill="#FFFFFF">
                    <g id="Group-18" transform="translate(0.457605, 0.750895)">
                        <g id="noun_215823_cc-copy" transform="translate(0.624327, 0.000000)">
                            <g id="Group">
                                <g>
                                    <path d="M0.576357469,6.5608691 C0.576357469,3.24804673 3.26699916,0.562473583 6.57091242,0.562473583 L29.8018771,0.562473583 C33.1125784,0.562473583 35.7964321,3.24920269 35.7964321,6.5608691 L35.7964321,61.0019461 C35.7964321,64.3147685 33.1057904,67.0003416 29.8018771,67.0003416 L6.57091242,67.0003416 C3.26021114,67.0003416 0.576357469,64.3136125 0.576357469,61.0019461 L0.576357469,6.5608691 Z M18.4104936,63.3160887 C19.6041089,63.3160887 20.5717254,62.3484722 20.5717254,61.1548568 C20.5717254,59.9612415 19.6041089,58.993625 18.4104936,58.993625 C17.2168782,58.993625 16.2492617,59.9612415 16.2492617,61.1548568 C16.2492617,62.3484722 17.2168782,63.3160887 18.4104936,63.3160887 Z M14.7283948,6.80387805 L22.0925923,6.80387805 C22.572866,6.80387805 22.8930485,6.48369556 22.8930485,6.00342181 C22.8930485,5.52314807 22.572866,5.20296557 22.0925923,5.20296557 L14.7283948,5.20296557 C14.2481211,5.20296557 13.9279386,5.52314807 13.9279386,6.00342181 C13.9279386,6.48369556 14.2481211,6.80387805 14.7283948,6.80387805 Z M30.0971547,25.5345541 L5.92337619,39.5425383 C5.52314807,39.7826752 5.44310244,40.2629489 5.60319369,40.6631771 C5.76328494,40.9033139 6.00342181,41.0634052 6.32360431,41.0634052 C6.48369556,41.0634052 6.56374118,41.0634052 6.72383243,40.9833596 L30.8976109,26.9753753 C31.297839,26.7352385 31.3778847,26.2549647 31.2177934,25.8547366 C30.9776565,25.4545085 30.4973828,25.2944172 30.0971547,25.5345541 Z M24.3338697,32.8987515 L11.6866611,40.1829033 C11.286433,40.4230402 11.2063874,40.9033139 11.3664786,41.3035421 C11.5265699,41.5436789 11.7667067,41.7037702 12.0868892,41.7037702 C12.2469805,41.7037702 12.3270261,41.7037702 12.4871174,41.6237246 L25.134326,34.3395728 C25.5345541,34.0994359 25.6145997,33.6191621 25.4545085,33.218934 C25.2143716,32.8187059 24.7340979,32.6586147 24.3338697,32.8987515 Z M12.0868892,33.6992078 C12.2469805,33.6992078 12.3270261,33.6992078 12.4871174,33.6191621 L25.134326,26.3350103 C25.5345541,26.0948735 25.6145997,25.6145997 25.4545085,25.2143716 C25.2143716,24.8141435 24.7340979,24.7340979 24.3338697,24.8941891 L11.6866611,32.1783409 C11.286433,32.4184778 11.2063874,32.8987515 11.3664786,33.2989796 C11.5265699,33.5391165 11.8467524,33.6992078 12.0868892,33.6992078 Z" id="Combined-Shape"></path>
                                    <path d="M31.8581584,0 L4.9628287,0 C2.3213231,0 0.160091248,2.16123185 0.160091248,4.80273745 L0.160091248,62.4355868 C0.160091248,65.0770924 2.3213231,67.2383243 4.9628287,67.2383243 L31.7781128,67.2383243 C34.4196184,67.2383243 36.5808502,65.0770924 36.5808502,62.4355868 L36.5808502,4.80273745 C36.6608959,2.16123185 34.499664,0 31.8581584,0 L31.8581584,0 Z M35.0599834,62.4355868 C35.0599834,64.1965906 33.6191621,65.6374118 31.8581584,65.6374118 L4.9628287,65.6374118 C3.20182497,65.6374118 1.76100373,64.1965906 1.76100373,62.4355868 L1.76100373,4.80273745 C1.76100373,3.04173372 3.20182497,1.60091248 4.9628287,1.60091248 L31.7781128,1.60091248 C33.5391165,1.60091248 34.9799378,3.04173372 34.9799378,4.80273745 L34.9799378,62.4355868 L35.0599834,62.4355868 Z" id="Shape"></path>
                                </g>
                            </g>
                        </g>
                    </g>
                </g>
                <g id="Path" opacity="0.572463768" transform="translate(0.000000, 21.795220)">
                    <mask id="mask-7" fill="white">
                        <use xlink:href="#path-6"></use>
                    </mask>
                    <use id="Mask" fill="url(#linearGradient-5)" xlink:href="#path-6"></use>
                    <path d="M77.9044455,-0.518476137 L51.0091158,-0.518476137 C48.3676102,-0.518476137 46.2063783,1.64275571 46.2063783,4.28426131 L46.2063783,61.9171107 C46.2063783,64.5586163 48.3676102,66.7198481 51.0091158,66.7198481 L77.8243998,66.7198481 C80.4659054,66.7198481 82.6271373,64.5586163 82.6271373,61.9171107 L82.6271373,4.28426131 C82.7071829,1.64275571 80.5459511,-0.518476137 77.9044455,-0.518476137 L77.9044455,-0.518476137 Z" mask="url(#mask-7)"></path>
                </g>
                <g id="Path-Copy-2" opacity="0.572463768" transform="translate(0.000000, 21.795220)">
                    <mask id="mask-9" fill="white">
                        <use xlink:href="#path-8"></use>
                    </mask>
                    <use id="Mask" fill="url(#linearGradient-5)" xlink:href="#path-8"></use>
                    <path d="M77.9044455,-0.518476137 L51.0091158,-0.518476137 C48.3676102,-0.518476137 46.2063783,1.64275571 46.2063783,4.28426131 L46.2063783,61.9171107 C46.2063783,64.5586163 48.3676102,66.7198481 51.0091158,66.7198481 L77.8243998,66.7198481 C80.4659054,66.7198481 82.6271373,64.5586163 82.6271373,61.9171107 L82.6271373,4.28426131 C82.7071829,1.64275571 80.5459511,-0.518476137 77.9044455,-0.518476137 L77.9044455,-0.518476137 Z" id="Path" mask="url(#mask-9)"></path>
                </g>
            </g>
        </g>
    </g>
</svg>